<?xml version="1.0" encoding="UTF-8" standalone="no"?><svg width="326" height="362" viewBox="0 0 326 362" fill="none" xmlns="http://www.w3.org/2000/svg">
<path d="M172.943 80.8271C155.529 85.3797 141.097 92.0115 128.849 105.746C114.697 121.614 107.427 143.573 111.815 164.733C117.558 192.426 142.782 207.582 168.368 214.57C187.449 219.781 207.926 221.066 227.598 220.118C252.164 218.934 279.011 213.874 297.974 196.903C313.354 183.139 318.374 163.814 320.994 144C324.257 119.33 324.955 92.071 318.902 67.7351C309.61 30.3782 274.896 13.7786 239.912 7.2395C203.495 0.432623 164.477 0.820108 130.114 15.8539C108.341 25.3798 94.8203 39.5816 83.5867 59.8021" stroke="#1E293B" stroke-width="5" stroke-linecap="round"/>
<path d="M191.34 92.2158C186.034 95.6267 175.777 104.854 183.456 110.613" stroke="#1E293B" stroke-width="5" stroke-linecap="round"/>
<path d="M211.489 93.968C207.059 98.5483 202.296 102.978 201.901 109.688C201.792 111.549 201.237 114.117 203.605 114.117" stroke="#1E293B" stroke-width="5" stroke-linecap="round"/>
<path d="M151.918 125.505C159.498 130.598 167.898 134.442 176.545 137.381C182.862 139.528 189.382 141.114 195.915 142.442C200.838 143.443 207.678 145.432 212.706 143.756C219.233 141.58 211.351 137.392 208.861 136.894" stroke="#1E293B" stroke-width="5" stroke-linecap="round"/>
<path d="M145.786 128.133C144.35 155.986 166.306 181.716 193.628 186.634C201.942 188.13 205.959 187.026 208.472 178.554C209.239 175.967 210.942 170.512 208.861 168.431" stroke="#1E293B" stroke-width="5" stroke-linecap="round"/>
<path d="M152.218 214.343C148.517 254.673 143.339 295.787 147.237 336.275" stroke="#1E293B" stroke-width="5" stroke-linecap="round"/>
<path d="M264.582 217.207C249.375 249.002 239.112 283.059 235.283 318.124C233.915 330.644 230.343 346.505 234.396 358.838" stroke="#1E293B" stroke-width="5" stroke-linecap="round"/>
<path d="M146.662 247.276C137.209 243.013 128.598 236.789 120.04 231.02C90.8006 211.31 63.0661 189.051 38.9086 163.273C34.3947 158.456 26.1469 150.77 28.104 143.026C28.8151 140.213 30.8365 137.801 31.9002 135.142" stroke="#1E293B" stroke-width="5" stroke-linecap="round"/>
<path d="M26.6438 108.861C23.1272 107.521 17.9681 105.935 14.1846 107.498C9.75983 109.326 3.3744 115.272 3.03936 120.298C2.32365 131.034 11.5034 131.638 19.6355 131.638" stroke="#1E293B" stroke-width="5" stroke-linecap="round"/>
<path d="M248.283 267.424C260.459 271.829 274.007 273.557 286.877 273.557C289.959 273.557 292.653 273.549 295.394 271.999C296.111 271.594 300.15 268.795 296.952 269.371C288.716 270.854 276.52 278.388 272.471 285.675C264.698 299.667 261.087 321.13 271.985 334.247C273.57 336.155 281.81 345.641 285.758 341.693C287.917 339.534 288.165 332.462 287.607 329.672C286.465 323.959 273.032 324.367 268.432 324.367" stroke="#1E293B" stroke-width="5" stroke-linecap="round"/>
<path d="M82.657 64.4216C85.1214 68.8939 87.4304 73.0472 90.7321 77.0362C96.118 83.5432 102.586 88.8862 109.327 93.9285C113.053 96.7159 117.451 100.17 122.334 100.17" stroke="#1E293B" stroke-width="5" stroke-linecap="round"/>
<path d="M82.657 64.4216C85.1214 68.8939 87.4304 73.0472 90.7321 77.0362C96.118 83.5432 102.586 88.8862 109.327 93.9285C113.053 96.7159 117.451 100.17 122.334 100.17" stroke="#1E293B" stroke-width="5" stroke-linecap="round"/>
<path d="M183.243 66.5547C186.295 66.1408 188.783 66.7884 189.285 70.1736C189.749 73.3068 187.325 76.0674 184.373 76.8621C181.469 77.6443 177.664 75.8074 175.649 73.7925C172.221 70.3641 168.991 62.243 172.483 57.8951C176.064 53.435 182.108 52.9747 187.411 53.2422C192.31 53.4895 197.044 55.0832 201.628 56.7319C209.947 59.724 216.6 64.874 223.875 69.7536C231.634 74.9586 239.888 79.2775 248.302 83.3083C259.1 88.4811 270.171 93.8299 281.793 96.8793C287.927 98.4886 294.644 100.671 301.035 100.821C303.23 100.873 304.561 99.8125 306.544 99.4158" stroke="#1E293B" stroke-width="5" stroke-linecap="round"/>
<path d="M183.243 66.5547C186.295 66.1408 188.783 66.7884 189.285 70.1736C189.749 73.3068 187.325 76.0674 184.373 76.8621C181.469 77.6443 177.664 75.8074 175.649 73.7925C172.221 70.3641 168.991 62.243 172.483 57.8951C176.064 53.435 182.108 52.9747 187.411 53.2422C192.31 53.4895 197.044 55.0832 201.628 56.7319C209.947 59.724 216.6 64.874 223.875 69.7536C231.634 74.9586 239.888 79.2775 248.302 83.3083C259.1 88.4811 270.171 93.8299 281.793 96.8793C287.927 98.4886 294.644 100.671 301.035 100.821C303.23 100.873 304.561 99.8125 306.544 99.4158" stroke="#1E293B" stroke-width="5" stroke-linecap="round"/>
<path d="M184.623 222.846C185.629 224.522 186.239 226.151 186.774 228.029C187.622 231.003 188.71 233.876 189.845 236.75C191.125 239.987 192.719 244.123 196.739 244.344C202.732 244.673 207.277 238.622 210.747 234.586C212.974 231.996 215.015 229.238 216.617 226.215C217.272 224.979 217.902 223.776 218.678 222.613" stroke="#1E293B" stroke-width="5" stroke-linecap="round"/>
<path d="M184.623 222.846C185.629 224.522 186.239 226.151 186.774 228.029C187.622 231.003 188.71 233.876 189.845 236.75C191.125 239.987 192.719 244.123 196.739 244.344C202.732 244.673 207.277 238.622 210.747 234.586C212.974 231.996 215.015 229.238 216.617 226.215C217.272 224.979 217.902 223.776 218.678 222.613" stroke="#1E293B" stroke-width="5" stroke-linecap="round"/>
<path d="M195.626 246.122C193.858 255.492 191.16 264.839 190.21 274.34" stroke="#1E293B" stroke-width="5" stroke-linecap="round"/>
<path d="M195.626 246.122C193.858 255.492 191.16 264.839 190.21 274.34" stroke="#1E293B" stroke-width="5" stroke-linecap="round"/>
</svg>
