<?xml version="1.0" encoding="UTF-8" standalone="no"?><svg width="170" height="170" viewBox="0 0 170 170" fill="none" xmlns="http://www.w3.org/2000/svg">
<rect width="170" height="170" rx="85" fill="#FFF599"/>
<mask id="path-2-outside-1_1112_85587" maskUnits="userSpaceOnUse" x="9.625" y="14.9375" width="129" height="145" fill="black">
<rect fill="white" x="9.625" y="14.9375" width="129" height="145"/>
<path fill-rule="evenodd" clip-rule="evenodd" d="M77.4272 16.2161C68.9461 17.3959 60.1011 20.538 54.6359 24.3125C52.2141 25.9851 48.2036 29.9148 46.216 32.5622C43.8426 35.7242 41.9824 38.9593 42.2028 39.5422C42.3073 39.8191 42.2107 40.2309 41.9883 40.4567C41.3088 41.1466 43.979 45.6417 46.7752 48.5164C50.0454 51.878 54.2115 55.0744 56.458 55.9458C58.0927 56.5794 58.2629 56.5814 58.8656 55.9693C59.6437 55.1789 59.3077 54.7803 57.3209 54.1363C54.1655 53.1129 47.4071 47.0054 44.803 42.8236C43.3176 40.4384 43.3117 40.4112 44.0151 39.3834C44.4049 38.8136 45.407 37.2723 46.2416 35.9576C48.2496 32.7956 52.2801 28.4944 55.2155 26.3809C66.0665 18.5685 84.1672 15.754 102.732 18.9931C111.046 20.4434 118.283 23.175 123.689 26.9028C128.334 30.1055 132.456 35.7178 134.144 41.1406C135.721 46.2051 136.156 50.1068 136.144 59.0954C136.117 80.1593 132.232 90.4973 122.083 96.5106C116.246 99.9695 108.583 101.831 98.4503 102.251C82.5113 102.913 69.1603 99.203 61.6045 92.0135C58.1182 88.6958 56.4647 85.979 55.4289 81.867C54.428 77.8926 54.4221 74.2362 55.4104 70.3128C57.0066 63.9748 60.6261 58.3541 65.496 54.6498C68.8695 52.0839 71.1914 50.8996 75.5607 49.5163C78.234 48.6701 78.999 48.2663 78.999 47.7005C78.999 47.3003 78.8364 46.871 78.6379 46.7465C78.1259 46.4253 72.1758 48.3904 69.3717 49.8064C55.4509 56.8371 48.9447 73.6113 55.0768 86.6637C56.9795 90.7143 61.9409 95.6419 66.496 98.006C68.9921 99.3011 69.8035 99.904 69.5186 100.252C69.3049 100.514 68.8679 103.383 68.548 106.627C68.2282 109.871 67.902 112.591 67.823 112.67C67.3051 113.197 56.9865 106.337 48.1521 99.5928C41.0994 94.2091 34.9901 88.7465 28.4659 81.9895C22.0175 75.3115 21.4603 74.288 22.7744 71.5322C23.8188 69.3409 23.8232 68.4719 22.7885 68.4719C22.2026 68.4719 21.724 69.04 21.0241 70.5666C19.819 73.1952 19.8209 73.8216 21.0442 76.3141C22.2054 78.6798 30.5934 87.4406 37.3966 93.3932C45.3724 100.371 61.634 112.203 65.9655 114.179L67.6678 114.955L67.4289 118.346C66.6831 128.92 66.4442 138.209 66.7735 143.823C67.1373 150.029 67.5051 151.367 68.5402 150.249C68.9822 149.771 69.0094 148.669 68.6903 144.082C68.2443 137.665 68.7402 125.182 69.954 112.271C70.3721 107.822 70.7659 103.329 70.8291 102.287C70.892 101.245 71.0319 100.394 71.14 100.397C71.248 100.4 72.6627 100.831 74.2836 101.356C75.9045 101.881 78.3326 102.53 79.6792 102.798C81.0259 103.066 82.0311 103.444 81.9128 103.639C81.5808 104.184 84.4132 111.617 85.3303 112.609L86.1441 113.488L85.0965 118.477C83.9994 123.703 83.9306 125.728 84.8505 125.728C85.6502 125.728 85.8836 125.037 86.8735 119.743C87.3658 117.11 87.8397 114.753 87.9262 114.506C88.0126 114.26 88.7993 113.73 89.674 113.329C91.3983 112.539 95.006 108.531 96.2871 105.981L97.0541 104.455L100.503 104.188C104.513 103.877 111.112 102.956 112.107 102.569C112.988 102.225 112.984 102.253 111.761 105.03C109.859 109.351 107.274 116.51 105.927 121.187C102.01 134.789 99.5415 155.124 101.383 158.618C102.01 159.806 103.2 159.533 103.06 158.234C102.5 153.004 102.57 150.748 103.525 143.363C104.812 133.411 106.932 123.134 107.698 123.134C107.852 123.134 108.688 123.389 109.556 123.699C110.423 124.01 112.523 124.477 114.222 124.736C115.922 124.995 117.735 125.29 118.252 125.39L119.193 125.572L117.979 126.847C114.238 130.776 112.442 140.304 114.413 145.762C115.507 148.792 119.587 153.059 121.39 153.059C123.159 153.059 124.189 151.488 124.189 148.79C124.189 145.099 123.371 144.403 118.491 143.942L115.74 143.683L115.612 140.89C115.352 135.246 117.343 129.818 120.643 127.17C121.988 126.09 123.083 125.528 123.844 125.528C126.283 125.528 128.715 123.813 128.229 122.436C127.97 121.703 126.477 121.826 123.945 122.788C122.043 123.51 121.231 123.598 118.527 123.371C114.546 123.038 108.477 121.621 108.23 120.967C107.997 120.35 110.523 113.118 113.225 106.668L115.278 101.769L118.07 100.694C132.587 95.1045 138.151 83.4522 138.125 58.6964C138.11 44.1442 135.828 36.3251 129.629 29.586C123.7 23.1395 114.868 19.0741 101.79 16.7711C97.4675 16.0098 81.5206 15.6463 77.4272 16.2161ZM79.1955 36.367C77.3439 37.3222 76.6413 38.4322 76.6413 40.4028C76.6413 43.9942 79.0336 46.926 81.9643 46.926C83.3581 46.926 83.8178 46.717 84.6619 45.6983C85.8007 44.3242 85.8832 43.8274 85.2191 42.3468C84.4843 40.7093 81.5533 40.3729 81.5533 41.9262C81.5533 42.4234 81.9049 42.7849 82.5356 42.9361C83.7318 43.223 83.8041 44.0425 82.6991 44.7874C81.9749 45.2754 81.7242 45.2331 80.5379 44.4223C79.0886 43.4324 78.1117 41.2212 78.4847 39.774C79.0073 37.7443 83.6874 37.0964 87.6998 38.498C90.7126 39.5506 92.5532 40.5573 97.3791 43.7931C101.687 46.6823 110.217 51.1159 115.607 53.2685C119.564 54.8485 125.89 56.502 127.977 56.502C130.252 56.502 131.747 55.8799 131.576 55.0045C131.46 54.4108 131.062 54.3262 128.895 54.434C125.554 54.5999 118.754 52.6253 112.007 49.5291C105.727 46.6471 102.462 44.8265 96.8258 41.0632C91.2569 37.3445 87.1772 35.7661 83.1251 35.7621C81.4334 35.7601 79.9205 35.9931 79.1955 36.367ZM83.2473 52.6177C81.5631 54.1176 80.1814 56.3368 80.1795 57.5453C80.1775 58.5855 81.6012 60.4919 82.38 60.4919C83.276 60.4919 83.487 59.344 82.7443 58.5105C81.7973 57.448 82.2519 56.3599 84.5888 54.0964C86.4911 52.2542 86.7544 51.3086 85.3614 51.321C84.9959 51.3242 84.0446 51.9079 83.2473 52.6177ZM91.0926 53.8087C89.1974 56.1692 88.8363 56.9768 88.7243 59.1086C88.6461 60.5925 88.7856 61.0781 89.4147 61.5122C90.5928 62.3249 91.4966 61.6414 90.8611 60.4181C90.1751 59.0978 90.8038 57.2688 92.7587 54.8984C93.6515 53.8155 94.27 52.7458 94.1333 52.5212C93.6118 51.6645 92.4031 52.1764 91.0926 53.8087ZM15.7892 57.1763C15.2799 57.2812 13.9093 58.3046 12.7438 59.4505C10.6891 61.4719 10.625 61.6003 10.625 63.7174C10.625 65.011 10.8647 66.2483 11.2136 66.7538C12.0333 67.9416 14.854 68.9487 16.939 68.7974C18.3772 68.6933 18.6806 68.5325 18.6806 67.8734C18.6806 67.1979 18.3489 67.0431 16.5193 66.8635C15.3306 66.747 13.982 66.4382 13.5219 66.1772C11.8243 65.2145 12.1634 62.5364 14.2225 60.6416C15.9739 59.03 16.8066 58.7906 18.8912 59.2985C20.8752 59.7817 21.6277 59.6229 21.6277 58.7212C21.6277 57.7592 17.8365 56.7557 15.7892 57.1763ZM69.2039 65.0453C68.5795 65.8094 70.3674 67.1711 74.7052 69.2351C80.227 71.8625 90.4513 74.4353 93.2515 73.9018C94.9652 73.5754 96.058 72.4112 95.7063 71.2868C95.3365 70.103 92.4821 68.6698 91.7402 69.295C90.9323 69.9757 91.0474 70.4222 92.163 70.9385C93.8327 71.7109 93.3042 72.1921 91.0824 71.922C85.2726 71.2158 76.7046 68.4232 72.5448 65.8796C69.9587 64.2984 69.8389 64.2684 69.2039 65.0453ZM66.6866 65.945C65.7569 66.8886 67.1126 73.6648 69.0172 77.5945C70.7175 81.1029 74.7591 85.6016 77.9829 87.5746C83.0893 90.7 88.8394 91.8447 91.051 90.1761C93.534 88.3024 94.5227 81.6388 92.3174 81.6388C91.5457 81.6388 91.4443 81.9133 91.5575 83.6944C91.6758 85.5557 90.8077 87.9912 89.7829 88.6727C88.9369 89.2357 88.4877 89.2576 86.3599 88.8406C85.0132 88.5765 82.5848 87.7195 80.9638 86.9358C77.2956 85.1631 72.7326 80.678 70.813 76.9585C69.4518 74.3204 68.4074 70.1792 68.396 67.3746C68.3905 65.9989 68.2533 65.6789 67.669 65.6789C67.2725 65.6789 66.8304 65.7986 66.6866 65.945ZM90.6894 104.221C92.9045 104.372 94.7172 104.609 94.7172 104.749C94.7172 105.759 90.1672 110.998 88.784 111.58C87.7301 112.023 87.4975 111.991 86.8259 111.309C86.2432 110.718 83.7145 104.481 83.7145 103.635C83.7145 103.551 84.3778 103.586 85.1881 103.714C85.9987 103.842 88.4744 104.07 90.6894 104.221ZM121.005 146.322C122.22 146.752 122.258 146.834 122.145 148.784C122.074 149.998 121.824 150.87 121.516 150.973C120.952 151.162 116.723 147.071 116.723 146.337C116.723 145.746 119.352 145.737 121.005 146.322Z"/>
</mask>
<path fill-rule="evenodd" clip-rule="evenodd" d="M77.4272 16.2161C68.9461 17.3959 60.1011 20.538 54.6359 24.3125C52.2141 25.9851 48.2036 29.9148 46.216 32.5622C43.8426 35.7242 41.9824 38.9593 42.2028 39.5422C42.3073 39.8191 42.2107 40.2309 41.9883 40.4567C41.3088 41.1466 43.979 45.6417 46.7752 48.5164C50.0454 51.878 54.2115 55.0744 56.458 55.9458C58.0927 56.5794 58.2629 56.5814 58.8656 55.9693C59.6437 55.1789 59.3077 54.7803 57.3209 54.1363C54.1655 53.1129 47.4071 47.0054 44.803 42.8236C43.3176 40.4384 43.3117 40.4112 44.0151 39.3834C44.4049 38.8136 45.407 37.2723 46.2416 35.9576C48.2496 32.7956 52.2801 28.4944 55.2155 26.3809C66.0665 18.5685 84.1672 15.754 102.732 18.9931C111.046 20.4434 118.283 23.175 123.689 26.9028C128.334 30.1055 132.456 35.7178 134.144 41.1406C135.721 46.2051 136.156 50.1068 136.144 59.0954C136.117 80.1593 132.232 90.4973 122.083 96.5106C116.246 99.9695 108.583 101.831 98.4503 102.251C82.5113 102.913 69.1603 99.203 61.6045 92.0135C58.1182 88.6958 56.4647 85.979 55.4289 81.867C54.428 77.8926 54.4221 74.2362 55.4104 70.3128C57.0066 63.9748 60.6261 58.3541 65.496 54.6498C68.8695 52.0839 71.1914 50.8996 75.5607 49.5163C78.234 48.6701 78.999 48.2663 78.999 47.7005C78.999 47.3003 78.8364 46.871 78.6379 46.7465C78.1259 46.4253 72.1758 48.3904 69.3717 49.8064C55.4509 56.8371 48.9447 73.6113 55.0768 86.6637C56.9795 90.7143 61.9409 95.6419 66.496 98.006C68.9921 99.3011 69.8035 99.904 69.5186 100.252C69.3049 100.514 68.8679 103.383 68.548 106.627C68.2282 109.871 67.902 112.591 67.823 112.67C67.3051 113.197 56.9865 106.337 48.1521 99.5928C41.0994 94.2091 34.9901 88.7465 28.4659 81.9895C22.0175 75.3115 21.4603 74.288 22.7744 71.5322C23.8188 69.3409 23.8232 68.4719 22.7885 68.4719C22.2026 68.4719 21.724 69.04 21.0241 70.5666C19.819 73.1952 19.8209 73.8216 21.0442 76.3141C22.2054 78.6798 30.5934 87.4406 37.3966 93.3932C45.3724 100.371 61.634 112.203 65.9655 114.179L67.6678 114.955L67.4289 118.346C66.6831 128.92 66.4442 138.209 66.7735 143.823C67.1373 150.029 67.5051 151.367 68.5402 150.249C68.9822 149.771 69.0094 148.669 68.6903 144.082C68.2443 137.665 68.7402 125.182 69.954 112.271C70.3721 107.822 70.7659 103.329 70.8291 102.287C70.892 101.245 71.0319 100.394 71.14 100.397C71.248 100.4 72.6627 100.831 74.2836 101.356C75.9045 101.881 78.3326 102.53 79.6792 102.798C81.0259 103.066 82.0311 103.444 81.9128 103.639C81.5808 104.184 84.4132 111.617 85.3303 112.609L86.1441 113.488L85.0965 118.477C83.9994 123.703 83.9306 125.728 84.8505 125.728C85.6502 125.728 85.8836 125.037 86.8735 119.743C87.3658 117.11 87.8397 114.753 87.9262 114.506C88.0126 114.26 88.7993 113.73 89.674 113.329C91.3983 112.539 95.006 108.531 96.2871 105.981L97.0541 104.455L100.503 104.188C104.513 103.877 111.112 102.956 112.107 102.569C112.988 102.225 112.984 102.253 111.761 105.03C109.859 109.351 107.274 116.51 105.927 121.187C102.01 134.789 99.5415 155.124 101.383 158.618C102.01 159.806 103.2 159.533 103.06 158.234C102.5 153.004 102.57 150.748 103.525 143.363C104.812 133.411 106.932 123.134 107.698 123.134C107.852 123.134 108.688 123.389 109.556 123.699C110.423 124.01 112.523 124.477 114.222 124.736C115.922 124.995 117.735 125.29 118.252 125.39L119.193 125.572L117.979 126.847C114.238 130.776 112.442 140.304 114.413 145.762C115.507 148.792 119.587 153.059 121.39 153.059C123.159 153.059 124.189 151.488 124.189 148.79C124.189 145.099 123.371 144.403 118.491 143.942L115.74 143.683L115.612 140.89C115.352 135.246 117.343 129.818 120.643 127.17C121.988 126.09 123.083 125.528 123.844 125.528C126.283 125.528 128.715 123.813 128.229 122.436C127.97 121.703 126.477 121.826 123.945 122.788C122.043 123.51 121.231 123.598 118.527 123.371C114.546 123.038 108.477 121.621 108.23 120.967C107.997 120.35 110.523 113.118 113.225 106.668L115.278 101.769L118.07 100.694C132.587 95.1045 138.151 83.4522 138.125 58.6964C138.11 44.1442 135.828 36.3251 129.629 29.586C123.7 23.1395 114.868 19.0741 101.79 16.7711C97.4675 16.0098 81.5206 15.6463 77.4272 16.2161ZM79.1955 36.367C77.3439 37.3222 76.6413 38.4322 76.6413 40.4028C76.6413 43.9942 79.0336 46.926 81.9643 46.926C83.3581 46.926 83.8178 46.717 84.6619 45.6983C85.8007 44.3242 85.8832 43.8274 85.2191 42.3468C84.4843 40.7093 81.5533 40.3729 81.5533 41.9262C81.5533 42.4234 81.9049 42.7849 82.5356 42.9361C83.7318 43.223 83.8041 44.0425 82.6991 44.7874C81.9749 45.2754 81.7242 45.2331 80.5379 44.4223C79.0886 43.4324 78.1117 41.2212 78.4847 39.774C79.0073 37.7443 83.6874 37.0964 87.6998 38.498C90.7126 39.5506 92.5532 40.5573 97.3791 43.7931C101.687 46.6823 110.217 51.1159 115.607 53.2685C119.564 54.8485 125.89 56.502 127.977 56.502C130.252 56.502 131.747 55.8799 131.576 55.0045C131.46 54.4108 131.062 54.3262 128.895 54.434C125.554 54.5999 118.754 52.6253 112.007 49.5291C105.727 46.6471 102.462 44.8265 96.8258 41.0632C91.2569 37.3445 87.1772 35.7661 83.1251 35.7621C81.4334 35.7601 79.9205 35.9931 79.1955 36.367ZM83.2473 52.6177C81.5631 54.1176 80.1814 56.3368 80.1795 57.5453C80.1775 58.5855 81.6012 60.4919 82.38 60.4919C83.276 60.4919 83.487 59.344 82.7443 58.5105C81.7973 57.448 82.2519 56.3599 84.5888 54.0964C86.4911 52.2542 86.7544 51.3086 85.3614 51.321C84.9959 51.3242 84.0446 51.9079 83.2473 52.6177ZM91.0926 53.8087C89.1974 56.1692 88.8363 56.9768 88.7243 59.1086C88.6461 60.5925 88.7856 61.0781 89.4147 61.5122C90.5928 62.3249 91.4966 61.6414 90.8611 60.4181C90.1751 59.0978 90.8038 57.2688 92.7587 54.8984C93.6515 53.8155 94.27 52.7458 94.1333 52.5212C93.6118 51.6645 92.4031 52.1764 91.0926 53.8087ZM15.7892 57.1763C15.2799 57.2812 13.9093 58.3046 12.7438 59.4505C10.6891 61.4719 10.625 61.6003 10.625 63.7174C10.625 65.011 10.8647 66.2483 11.2136 66.7538C12.0333 67.9416 14.854 68.9487 16.939 68.7974C18.3772 68.6933 18.6806 68.5325 18.6806 67.8734C18.6806 67.1979 18.3489 67.0431 16.5193 66.8635C15.3306 66.747 13.982 66.4382 13.5219 66.1772C11.8243 65.2145 12.1634 62.5364 14.2225 60.6416C15.9739 59.03 16.8066 58.7906 18.8912 59.2985C20.8752 59.7817 21.6277 59.6229 21.6277 58.7212C21.6277 57.7592 17.8365 56.7557 15.7892 57.1763ZM69.2039 65.0453C68.5795 65.8094 70.3674 67.1711 74.7052 69.2351C80.227 71.8625 90.4513 74.4353 93.2515 73.9018C94.9652 73.5754 96.058 72.4112 95.7063 71.2868C95.3365 70.103 92.4821 68.6698 91.7402 69.295C90.9323 69.9757 91.0474 70.4222 92.163 70.9385C93.8327 71.7109 93.3042 72.1921 91.0824 71.922C85.2726 71.2158 76.7046 68.4232 72.5448 65.8796C69.9587 64.2984 69.8389 64.2684 69.2039 65.0453ZM66.6866 65.945C65.7569 66.8886 67.1126 73.6648 69.0172 77.5945C70.7175 81.1029 74.7591 85.6016 77.9829 87.5746C83.0893 90.7 88.8394 91.8447 91.051 90.1761C93.534 88.3024 94.5227 81.6388 92.3174 81.6388C91.5457 81.6388 91.4443 81.9133 91.5575 83.6944C91.6758 85.5557 90.8077 87.9912 89.7829 88.6727C88.9369 89.2357 88.4877 89.2576 86.3599 88.8406C85.0132 88.5765 82.5848 87.7195 80.9638 86.9358C77.2956 85.1631 72.7326 80.678 70.813 76.9585C69.4518 74.3204 68.4074 70.1792 68.396 67.3746C68.3905 65.9989 68.2533 65.6789 67.669 65.6789C67.2725 65.6789 66.8304 65.7986 66.6866 65.945ZM90.6894 104.221C92.9045 104.372 94.7172 104.609 94.7172 104.749C94.7172 105.759 90.1672 110.998 88.784 111.58C87.7301 112.023 87.4975 111.991 86.8259 111.309C86.2432 110.718 83.7145 104.481 83.7145 103.635C83.7145 103.551 84.3778 103.586 85.1881 103.714C85.9987 103.842 88.4744 104.07 90.6894 104.221ZM121.005 146.322C122.22 146.752 122.258 146.834 122.145 148.784C122.074 149.998 121.824 150.87 121.516 150.973C120.952 151.162 116.723 147.071 116.723 146.337C116.723 145.746 119.352 145.737 121.005 146.322Z" fill="black"/>
<path fill-rule="evenodd" clip-rule="evenodd" d="M77.4272 16.2161C68.9461 17.3959 60.1011 20.538 54.6359 24.3125C52.2141 25.9851 48.2036 29.9148 46.216 32.5622C43.8426 35.7242 41.9824 38.9593 42.2028 39.5422C42.3073 39.8191 42.2107 40.2309 41.9883 40.4567C41.3088 41.1466 43.979 45.6417 46.7752 48.5164C50.0454 51.878 54.2115 55.0744 56.458 55.9458C58.0927 56.5794 58.2629 56.5814 58.8656 55.9693C59.6437 55.1789 59.3077 54.7803 57.3209 54.1363C54.1655 53.1129 47.4071 47.0054 44.803 42.8236C43.3176 40.4384 43.3117 40.4112 44.0151 39.3834C44.4049 38.8136 45.407 37.2723 46.2416 35.9576C48.2496 32.7956 52.2801 28.4944 55.2155 26.3809C66.0665 18.5685 84.1672 15.754 102.732 18.9931C111.046 20.4434 118.283 23.175 123.689 26.9028C128.334 30.1055 132.456 35.7178 134.144 41.1406C135.721 46.2051 136.156 50.1068 136.144 59.0954C136.117 80.1593 132.232 90.4973 122.083 96.5106C116.246 99.9695 108.583 101.831 98.4503 102.251C82.5113 102.913 69.1603 99.203 61.6045 92.0135C58.1182 88.6958 56.4647 85.979 55.4289 81.867C54.428 77.8926 54.4221 74.2362 55.4104 70.3128C57.0066 63.9748 60.6261 58.3541 65.496 54.6498C68.8695 52.0839 71.1914 50.8996 75.5607 49.5163C78.234 48.6701 78.999 48.2663 78.999 47.7005C78.999 47.3003 78.8364 46.871 78.6379 46.7465C78.1259 46.4253 72.1758 48.3904 69.3717 49.8064C55.4509 56.8371 48.9447 73.6113 55.0768 86.6637C56.9795 90.7143 61.9409 95.6419 66.496 98.006C68.9921 99.3011 69.8035 99.904 69.5186 100.252C69.3049 100.514 68.8679 103.383 68.548 106.627C68.2282 109.871 67.902 112.591 67.823 112.67C67.3051 113.197 56.9865 106.337 48.1521 99.5928C41.0994 94.2091 34.9901 88.7465 28.4659 81.9895C22.0175 75.3115 21.4603 74.288 22.7744 71.5322C23.8188 69.3409 23.8232 68.4719 22.7885 68.4719C22.2026 68.4719 21.724 69.04 21.0241 70.5666C19.819 73.1952 19.8209 73.8216 21.0442 76.3141C22.2054 78.6798 30.5934 87.4406 37.3966 93.3932C45.3724 100.371 61.634 112.203 65.9655 114.179L67.6678 114.955L67.4289 118.346C66.6831 128.92 66.4442 138.209 66.7735 143.823C67.1373 150.029 67.5051 151.367 68.5402 150.249C68.9822 149.771 69.0094 148.669 68.6903 144.082C68.2443 137.665 68.7402 125.182 69.954 112.271C70.3721 107.822 70.7659 103.329 70.8291 102.287C70.892 101.245 71.0319 100.394 71.14 100.397C71.248 100.4 72.6627 100.831 74.2836 101.356C75.9045 101.881 78.3326 102.53 79.6792 102.798C81.0259 103.066 82.0311 103.444 81.9128 103.639C81.5808 104.184 84.4132 111.617 85.3303 112.609L86.1441 113.488L85.0965 118.477C83.9994 123.703 83.9306 125.728 84.8505 125.728C85.6502 125.728 85.8836 125.037 86.8735 119.743C87.3658 117.11 87.8397 114.753 87.9262 114.506C88.0126 114.26 88.7993 113.73 89.674 113.329C91.3983 112.539 95.006 108.531 96.2871 105.981L97.0541 104.455L100.503 104.188C104.513 103.877 111.112 102.956 112.107 102.569C112.988 102.225 112.984 102.253 111.761 105.03C109.859 109.351 107.274 116.51 105.927 121.187C102.01 134.789 99.5415 155.124 101.383 158.618C102.01 159.806 103.2 159.533 103.06 158.234C102.5 153.004 102.57 150.748 103.525 143.363C104.812 133.411 106.932 123.134 107.698 123.134C107.852 123.134 108.688 123.389 109.556 123.699C110.423 124.01 112.523 124.477 114.222 124.736C115.922 124.995 117.735 125.29 118.252 125.39L119.193 125.572L117.979 126.847C114.238 130.776 112.442 140.304 114.413 145.762C115.507 148.792 119.587 153.059 121.39 153.059C123.159 153.059 124.189 151.488 124.189 148.79C124.189 145.099 123.371 144.403 118.491 143.942L115.74 143.683L115.612 140.89C115.352 135.246 117.343 129.818 120.643 127.17C121.988 126.09 123.083 125.528 123.844 125.528C126.283 125.528 128.715 123.813 128.229 122.436C127.97 121.703 126.477 121.826 123.945 122.788C122.043 123.51 121.231 123.598 118.527 123.371C114.546 123.038 108.477 121.621 108.23 120.967C107.997 120.35 110.523 113.118 113.225 106.668L115.278 101.769L118.07 100.694C132.587 95.1045 138.151 83.4522 138.125 58.6964C138.11 44.1442 135.828 36.3251 129.629 29.586C123.7 23.1395 114.868 19.0741 101.79 16.7711C97.4675 16.0098 81.5206 15.6463 77.4272 16.2161ZM79.1955 36.367C77.3439 37.3222 76.6413 38.4322 76.6413 40.4028C76.6413 43.9942 79.0336 46.926 81.9643 46.926C83.3581 46.926 83.8178 46.717 84.6619 45.6983C85.8007 44.3242 85.8832 43.8274 85.2191 42.3468C84.4843 40.7093 81.5533 40.3729 81.5533 41.9262C81.5533 42.4234 81.9049 42.7849 82.5356 42.9361C83.7318 43.223 83.8041 44.0425 82.6991 44.7874C81.9749 45.2754 81.7242 45.2331 80.5379 44.4223C79.0886 43.4324 78.1117 41.2212 78.4847 39.774C79.0073 37.7443 83.6874 37.0964 87.6998 38.498C90.7126 39.5506 92.5532 40.5573 97.3791 43.7931C101.687 46.6823 110.217 51.1159 115.607 53.2685C119.564 54.8485 125.89 56.502 127.977 56.502C130.252 56.502 131.747 55.8799 131.576 55.0045C131.46 54.4108 131.062 54.3262 128.895 54.434C125.554 54.5999 118.754 52.6253 112.007 49.5291C105.727 46.6471 102.462 44.8265 96.8258 41.0632C91.2569 37.3445 87.1772 35.7661 83.1251 35.7621C81.4334 35.7601 79.9205 35.9931 79.1955 36.367ZM83.2473 52.6177C81.5631 54.1176 80.1814 56.3368 80.1795 57.5453C80.1775 58.5855 81.6012 60.4919 82.38 60.4919C83.276 60.4919 83.487 59.344 82.7443 58.5105C81.7973 57.448 82.2519 56.3599 84.5888 54.0964C86.4911 52.2542 86.7544 51.3086 85.3614 51.321C84.9959 51.3242 84.0446 51.9079 83.2473 52.6177ZM91.0926 53.8087C89.1974 56.1692 88.8363 56.9768 88.7243 59.1086C88.6461 60.5925 88.7856 61.0781 89.4147 61.5122C90.5928 62.3249 91.4966 61.6414 90.8611 60.4181C90.1751 59.0978 90.8038 57.2688 92.7587 54.8984C93.6515 53.8155 94.27 52.7458 94.1333 52.5212C93.6118 51.6645 92.4031 52.1764 91.0926 53.8087ZM15.7892 57.1763C15.2799 57.2812 13.9093 58.3046 12.7438 59.4505C10.6891 61.4719 10.625 61.6003 10.625 63.7174C10.625 65.011 10.8647 66.2483 11.2136 66.7538C12.0333 67.9416 14.854 68.9487 16.939 68.7974C18.3772 68.6933 18.6806 68.5325 18.6806 67.8734C18.6806 67.1979 18.3489 67.0431 16.5193 66.8635C15.3306 66.747 13.982 66.4382 13.5219 66.1772C11.8243 65.2145 12.1634 62.5364 14.2225 60.6416C15.9739 59.03 16.8066 58.7906 18.8912 59.2985C20.8752 59.7817 21.6277 59.6229 21.6277 58.7212C21.6277 57.7592 17.8365 56.7557 15.7892 57.1763ZM69.2039 65.0453C68.5795 65.8094 70.3674 67.1711 74.7052 69.2351C80.227 71.8625 90.4513 74.4353 93.2515 73.9018C94.9652 73.5754 96.058 72.4112 95.7063 71.2868C95.3365 70.103 92.4821 68.6698 91.7402 69.295C90.9323 69.9757 91.0474 70.4222 92.163 70.9385C93.8327 71.7109 93.3042 72.1921 91.0824 71.922C85.2726 71.2158 76.7046 68.4232 72.5448 65.8796C69.9587 64.2984 69.8389 64.2684 69.2039 65.0453ZM66.6866 65.945C65.7569 66.8886 67.1126 73.6648 69.0172 77.5945C70.7175 81.1029 74.7591 85.6016 77.9829 87.5746C83.0893 90.7 88.8394 91.8447 91.051 90.1761C93.534 88.3024 94.5227 81.6388 92.3174 81.6388C91.5457 81.6388 91.4443 81.9133 91.5575 83.6944C91.6758 85.5557 90.8077 87.9912 89.7829 88.6727C88.9369 89.2357 88.4877 89.2576 86.3599 88.8406C85.0132 88.5765 82.5848 87.7195 80.9638 86.9358C77.2956 85.1631 72.7326 80.678 70.813 76.9585C69.4518 74.3204 68.4074 70.1792 68.396 67.3746C68.3905 65.9989 68.2533 65.6789 67.669 65.6789C67.2725 65.6789 66.8304 65.7986 66.6866 65.945ZM90.6894 104.221C92.9045 104.372 94.7172 104.609 94.7172 104.749C94.7172 105.759 90.1672 110.998 88.784 111.58C87.7301 112.023 87.4975 111.991 86.8259 111.309C86.2432 110.718 83.7145 104.481 83.7145 103.635C83.7145 103.551 84.3778 103.586 85.1881 103.714C85.9987 103.842 88.4744 104.07 90.6894 104.221ZM121.005 146.322C122.22 146.752 122.258 146.834 122.145 148.784C122.074 149.998 121.824 150.87 121.516 150.973C120.952 151.162 116.723 147.071 116.723 146.337C116.723 145.746 119.352 145.737 121.005 146.322Z" stroke="black" stroke-width="0.4" mask="url(#path-2-outside-1_1112_85587)"/>
</svg>
